<?xml version="1.0" standalone="no"?>
<!DOCTYPE svg PUBLIC "-//W3C//DTD SVG 1.1//EN" "http://www.w3.org/Graphics/SVG/1.1/DTD/svg11.dtd" >
<svg xmlns="http://www.w3.org/2000/svg">
<metadata></metadata>
<defs>
<font id="OceaniaRegular" horiz-adv-x="1062" >
<font-face units-per-em="2048" ascent="1556" descent="-492" />
<missing-glyph horiz-adv-x="491" />
<glyph horiz-adv-x="0" />
<glyph horiz-adv-x="2048" />
<glyph unicode=" "  horiz-adv-x="491" />
<glyph unicode="&#x09;" horiz-adv-x="491" />
<glyph unicode="&#xa0;" horiz-adv-x="491" />
<glyph unicode="!" horiz-adv-x="620" d="M201 104q0 113 108 113q109 0 109 -113q0 -116 -109 -116t-108 116zM227 963v538h164v-538l-18 -498h-127z" />
<glyph unicode="&#x22;" horiz-adv-x="800" d="M125 1595h201l-21 -536h-160zM475 1595h201l-19 -536h-159z" />
<glyph unicode="#" horiz-adv-x="1173" d="M76 305l33 176h196l74 418h-195l33 174h193l51 281h123l-49 -281h249l50 281h124l-51 -281h191l-33 -174h-188l-74 -418h186l-33 -176h-186l-53 -305h-123l53 305h-252l-53 -305h-123l53 305h-196zM428 481h250l76 418h-250z" />
<glyph unicode="$" horiz-adv-x="1173" d="M160 1028v70q6 162 112 268t263 107h6q43 0 112 -9l19 107l127 4l-25 -129q12 -4 19 -4q115 -31 174 -31h8l2 -149h-14q-43 0 -93 10l-122 31l-97 -506l80 -15q45 -8 88 -22q219 -68 219 -297v-45q0 -213 -170 -314q-61 -37 -137 -53q-55 -10 -119 -10h-41l-63 8 l-25 -123h-108q2 0 8 37l8 45q4 31 10 58q-115 18 -200 20v143q12 2 28 2q33 0 76 -6q45 -6 121 -22l84 469l-31 4q-4 0 -8 2q-25 2 -39 6q-272 57 -272 344zM309 1057q6 -111 37 -158q35 -53 135 -82q21 -4 54 -8l51 276q14 74 22 127l21 113q-43 6 -88 6 q-215 -2 -232 -239v-35zM532 182q31 -6 56 -6h37q102 0 178 64q84 72 84 192v29q0 102 -80 151q-57 35 -182 50z" />
<glyph unicode="%" horiz-adv-x="1769" d="M109 975v61q0 152 71 258q82 119 219 119h23q137 0 217 -117q74 -106 74 -260v-61q0 -150 -74 -258q-80 -119 -217 -119h-23q-139 0 -219 121q-72 109 -71 256zM238 969q0 -119 43 -191q47 -69 129 -69q86 0 133 79q41 70 41 181v73q0 113 -39 183q-43 78 -135 78 q-88 0 -131 -80q-37 -63 -41 -181v-73zM551 0l539 1391h110l-536 -1391h-113zM1034 356v64q0 152 74 258q80 119 217 119h23q137 0 217 -119q73 -106 73 -258v-64q0 -152 -73 -256q-80 -121 -217 -120h-23q-137 0 -219 120q-72 109 -72 256zM1163 350q0 -123 45 -188 q43 -72 127 -72q90 0 133 80q41 70 41 180v76q0 113 -39 182q-43 76 -135 76q-88 0 -131 -80q-37 -66 -41 -178v-76z" />
<glyph unicode="&#x26;" horiz-adv-x="1372" d="M111 391q0 68 20 139q68 229 291 334q-160 170 -160 350q0 139 109 234q104 92 247 92q141 0 244 -90q104 -92 105 -229q0 -127 -70 -217q-55 -74 -182 -152l-47 -29l295 -327l18 45l45 135q39 100 107 160q68 57 165 57q37 0 78 -8v-146q-37 6 -65 6q-49 0 -76 -18 q-35 -29 -61 -90q-10 -23 -23 -57l-80 -201l342 -379h-213l-215 236q-190 -256 -453 -256h-2q-186 0 -309 135q-111 125 -110 276zM270 410q0 -100 74 -185q74 -82 193 -86q213 0 350 209l-365 406q-164 -61 -227 -224q-25 -63 -25 -120zM424 1212q0 -80 41 -151 q16 -29 43 -64l53 -61q63 33 92 51q47 29 78 57q74 72 74 177q0 74 -55 129q-55 51 -125 51h-13q-76 0 -131 -53q-57 -55 -57 -136z" />
<glyph unicode="'" horiz-adv-x="452" d="M125 1589h203l-21 -536h-162z" />
<glyph unicode="(" horiz-adv-x="706" d="M150 627q0 238 73 471q80 246 228 444h172q-145 -207 -222 -450q-70 -227 -69 -465q0 -236 69 -461q76 -242 222 -451h-172q-147 197 -226 439q-76 233 -75 473z" />
<glyph unicode=")" horiz-adv-x="706" d="M84 -285q145 207 221 451q70 227 70 465q0 236 -70 463q-76 240 -221 448h172q147 -197 225 -440q76 -231 76 -471q0 -238 -74 -471q-80 -246 -227 -445h-172z" />
<glyph unicode="*" horiz-adv-x="874" d="M37 1198l49 150l283 -105l-13 299h162l-10 -299l280 105l50 -150l-293 -84l192 -233l-131 -97l-168 250l-168 -250l-133 97l193 233z" />
<glyph unicode="+" d="M92 463v162h357v426h163v-426h357v-162h-357v-426h-163v426h-357z" />
<glyph unicode="," horiz-adv-x="557" d="M61 -260q121 82 156 133q29 41 29 113v30h-25q-76 0 -76 90q0 115 125 115q147 0 148 -182q0 -242 -254 -410z" />
<glyph unicode="-" horiz-adv-x="512" d="M47 467v154h418v-154h-418z" />
<glyph unicode="." horiz-adv-x="557" d="M154 104q0 119 125 119t124 -119q1 -118 -124 -118t-125 118z" />
<glyph unicode="/" horiz-adv-x="679" d="M-37 -285l637 1786h164l-637 -1786h-164z" />
<glyph unicode="0" horiz-adv-x="1312" d="M184 582v123q0 266 135 425q129 154 334 154q211 0 340 -154q135 -158 135 -425v-123q0 -262 -133 -424q-133 -160 -340 -160q-203 0 -336 160q-135 164 -135 424zM344 571q0 -195 80 -311q82 -121 231 -121q158 0 240 121q76 113 76 311v144q0 186 -72 301 q-84 129 -244 129q-152 0 -235 -131q-76 -117 -76 -299v-144z" />
<glyph unicode="1" horiz-adv-x="735" d="M100 1004l324 299l125 -62v-1241h-154v1104l-215 -213z" />
<glyph unicode="2" horiz-adv-x="1224" d="M160 1053q82 82 174 147q113 80 192 96q70 14 129 15q190 0 291 -144q80 -113 80 -227q0 -147 -133 -295q-45 -49 -115 -119l-260 -256q-70 -70 -115 -118h603l16 -152h-809l-51 141q51 55 137 142l248 243q47 47 82 80q90 88 143 146q84 88 86 190v6q0 86 -61 156 q-53 59 -144 59h-18q-102 -4 -189 -71q-102 -80 -178 -162z" />
<glyph unicode="3" horiz-adv-x="1263" d="M170 12l106 121q37 -35 74 -65q47 -39 92 -68q115 -74 197 -74q119 0 197 76q80 76 79 193v32q0 111 -79 187q-82 78 -203 78h-207v143h203q113 0 188 74q74 70 74 172v39q-6 246 -254 245q-92 0 -191 -57q-39 -25 -84 -57l-73 -62l-101 125q94 86 199 137q127 61 250 62 q174 0 295 -111q121 -113 121 -282v-39q0 -195 -185 -320q25 -8 60 -37q65 -53 104 -123q45 -82 45 -174v-32q0 -178 -129 -299q-123 -117 -295 -117h-20q-119 0 -254 78q-57 31 -115 75q-49 37 -94 80z" />
<glyph unicode="4" horiz-adv-x="1239" d="M129 293q20 43 74 141q25 43 55 103l324 602q25 41 71 96l84 92h193l-111 -123q-63 -78 -98 -141l-211 -385q-61 -115 -104 -199q-55 -104 -97 -188h479v450h158v-450h184v-150h-184v-356h-158v356h-602z" />
<glyph unicode="5" horiz-adv-x="1280" d="M209 4l117 115q61 -66 139 -117q96 -61 168 -61h24q133 0 211 98q76 94 76 240q0 354 -264 354q-98 0 -170 -39q-55 -31 -119 -102l-153 55v770h784l-12 -146h-613v-524q49 55 109 88q90 49 205 49q205 0 307 -141q92 -129 92 -360q0 -221 -129 -359q-125 -131 -319 -131 h-29q-113 0 -236 66q-100 55 -188 145z" />
<glyph unicode="6" horiz-adv-x="1280" d="M176 477v449q0 246 131 417q145 190 381 191q57 0 123 -10q51 -6 107 -21q39 -10 75 -22l33 -11l-61 -149h-4q-70 33 -117 47q-72 23 -150 23q-182 0 -280 -158q-78 -131 -78 -313v-74q111 143 313 143q182 0 314 -119q145 -133 145 -354v-55q0 -205 -127 -340 q-135 -141 -354 -141q-197 0 -326 145q-125 143 -125 352zM336 483q0 -158 82 -260q84 -102 217 -102q313 0 313 328v71q0 137 -88 230q-84 90 -207 90q-201 0 -317 -166v-191z" />
<glyph unicode="7" horiz-adv-x="1124" d="M72 1049q72 100 159 217q39 51 105 51l700 -2l23 -119l-637 -1397h-176l631 1370h-500q-37 0 -68 -41l-114 -165z" />
<glyph unicode="8" horiz-adv-x="1304" d="M178 432q0 242 205 356q-84 59 -125 142q-45 88 -45 213q0 170 121 280q125 111 323 113h7q184 0 307 -111q125 -113 125 -282q0 -236 -170 -355q94 -59 145 -141q59 -94 59 -215q0 -190 -141 -313q-135 -119 -332 -119q-207 0 -340 119q-139 121 -139 313zM338 436 q0 -133 86 -215q86 -84 231 -84q313 0 314 299q0 109 -76 193q-76 82 -172 82h-133q-96 0 -172 -82q-78 -82 -78 -193zM373 1128q0 -121 73 -196q68 -72 160 -72h92q98 0 166 70q72 76 72 198q0 113 -66 187q-74 82 -213 82q-141 0 -217 -82q-68 -72 -67 -187z" />
<glyph unicode="9" horiz-adv-x="1280" d="M172 823v56q0 205 127 340q135 141 354 141q197 0 326 -146q125 -143 125 -352v-448q0 -246 -131 -418q-145 -190 -381 -191q-57 0 -123 11q-51 6 -107 20q-39 10 -75 23l-33 10l61 149h4q70 -33 117 -47q72 -23 150 -22q182 0 280 160q78 129 78 311v74 q-111 -143 -313 -144q-182 0 -312 119q-147 133 -147 354zM332 819q0 -137 88 -229q84 -90 207 -90q201 0 317 166v190q0 158 -82 260q-84 102 -217 103q-313 0 -313 -328v-72z" />
<glyph unicode=":" horiz-adv-x="557" d="M154 104q0 119 125 119t124 -119q1 -118 -124 -118t-125 118zM154 954q0 119 125 119t124 -119q1 -118 -124 -118t-125 118z" />
<glyph unicode=";" horiz-adv-x="557" d="M61 -260q121 82 156 133q29 41 29 113v30h-25q-76 0 -76 90q0 115 125 115q147 0 148 -182q0 -242 -254 -410zM154 954q0 119 125 119t124 -119q1 -118 -124 -118t-125 118z" />
<glyph unicode="&#x3c;" d="M178 545l506 542h199v-20l-486 -518l486 -529v-20h-199z" />
<glyph unicode="=" d="M127 223v160h809v-160h-809zM127 719v160h809v-160h-809z" />
<glyph unicode="&#x3e;" d="M178 0v20l486 521l-486 526v20h199l506 -542l-506 -545h-199z" />
<glyph unicode="?" horiz-adv-x="937" d="M109 1376q170 164 368 164q49 0 98 -10q260 -49 261 -309q-1 -105 -60 -185q-23 -31 -59 -63l-142 -117q-37 -37 -61 -72q-61 -88 -63 -209l-5 -110h-143v158q0 113 53 206q23 39 56 78q27 31 65 70l64 59q35 35 55 60q55 66 55 129q0 143 -145 143q-16 0 -33 -2 q-178 -14 -305 -178zM270 102q0 115 121 115t121 -115q0 -112 -123 -112q-119 0 -119 112z" />
<glyph unicode="@" horiz-adv-x="1933" d="M129 502q0 479 256 753q246 266 653 267q356 0 555 -179q211 -186 211 -540q0 -150 -45 -277q-39 -115 -112 -198q-139 -162 -324 -162q-162 0 -205 110h-8q-176 -111 -283 -110q-254 0 -254 293q0 258 121 426q117 160 289 159q123 0 240 -63l10 49h156l-111 -631 q-6 -33 -6 -45q0 -63 80 -63q117 0 207 129q102 147 102 381q0 590 -625 590q-348 0 -553 -238q-209 -240 -209 -651q0 -672 598 -672q172 0 338 64l17 -136q-184 -59 -363 -59q-735 0 -735 803zM743 467q0 -170 144 -170q84 0 227 84l88 493q-98 49 -184 50 q-113 0 -193 -129q-82 -131 -82 -328z" />
<glyph unicode="A" horiz-adv-x="1247" d="M25 0l522 1534h166q78 -233 145 -434l371 -1100h-170q-23 59 -45 125l-39 115q-25 76 -39 114q-23 66 -45 125h-535l-163 -479h-168zM406 631h444l-213 653l-8 66l-8 -66z" />
<glyph unicode="B" horiz-adv-x="1323" d="M221 0v1534h522q172 -2 295 -113q127 -117 127 -295q0 -238 -190 -350q102 -35 170 -135q68 -98 72 -215q0 -182 -111 -303q-113 -123 -289 -123h-596zM381 145h412q127 0 194 80q59 72 64 201q-2 113 -74 188q-74 76 -193 76h-403v-545zM381 836h373q106 0 176 82 t69 202q0 260 -249 266h-369v-550z" />
<glyph unicode="C" horiz-adv-x="1208" d="M141 600v322q0 289 166 460q152 158 375 158q264 0 438 -162l-102 -116q-143 133 -336 133q-158 0 -264 -119q-117 -131 -117 -354v-322q0 -223 121 -350q104 -111 260 -115h16q213 0 355 154l84 -135q-88 -72 -191 -113q-125 -49 -270 -51h-6q-231 0 -381 176 q-147 174 -148 434z" />
<glyph unicode="D" horiz-adv-x="1368" d="M172 0v1536h514q233 -6 371 -162q153 -176 153 -461v-301q0 -283 -153 -456q-137 -150 -371 -156h-514zM330 150h352q188 2 276 131q76 111 86 331v301q-10 223 -86 336q-88 133 -276 135h-352v-1234z" />
<glyph unicode="E" horiz-adv-x="1216" d="M205 0v1534h870v-154h-713v-536h650v-154h-650v-534h705l20 -156h-882z" />
<glyph unicode="F" horiz-adv-x="1118" d="M221 0v1536h842v-156h-682v-522h629v-153h-629v-705h-160z" />
<glyph unicode="G" horiz-adv-x="1378" d="M160 590v346q0 266 155 438q154 172 392 172q285 0 479 -178l-94 -129q-150 162 -385 162q-168 0 -275 -125q-109 -129 -108 -340v-346q0 -225 118 -354q109 -117 275 -117q135 0 237 82q115 94 115 250v198h-377l-20 148h557v-351q0 -203 -148 -335q-145 -135 -364 -136 q-246 1 -402 175q-156 172 -155 440z" />
<glyph unicode="H" horiz-adv-x="1431" d="M199 0v1534h159v-705h732v705h159v-1534h-159v680h-732v-680h-159z" />
<glyph unicode="I" horiz-adv-x="602" d="M221 0v1534h160v-1534h-160z" />
<glyph unicode="J" horiz-adv-x="620" d="M23 -154q39 -8 69 -8q143 0 144 185l-3 1511h158v-1473q0 -366 -271 -366h-1q-45 0 -96 10v141z" />
<glyph unicode="K" horiz-adv-x="1347" d="M221 0v1534h156v-911l563 700q100 125 172 211h178l-366 -467q-102 -131 -181 -227l187 -316q51 -84 98 -157q53 -86 107 -168q37 -57 92 -58q27 0 59 15l4 -146q-39 -22 -82 -22h-4q-106 0 -186 118q-66 98 -133 207l-248 404l-68 -84q-8 -8 -18 -23q-2 -4 -8 -10 q-8 -8 -11 -12l-36 -45q-88 -111 -119 -152v-391h-156z" />
<glyph unicode="L" horiz-adv-x="1124" d="M221 0v1534h162v-1384h709l-27 -150h-844z" />
<glyph unicode="M" horiz-adv-x="1714" d="M180 0v1534h262l412 -1270l418 1270h260v-1534h-162v1346l-434 -1303h-164l-432 1303v-1346h-160z" />
<glyph unicode="N" horiz-adv-x="1456" d="M213 0v1534h166l700 -1229v1229h160v-1534h-162l-704 1239v-1239h-160z" />
<glyph unicode="O" horiz-adv-x="1439" d="M141 915q2 295 164 469q154 166 402 166t407 -166q166 -176 166 -469v-301q0 -289 -164 -464q-160 -170 -405 -170q-248 0 -406 167q-162 174 -162 463zM307 625q0 -225 103 -357q106 -141 305 -141q197 0 301 141q96 131 96 350v293q0 217 -96 351q-109 143 -307 143 q-195 0 -301 -143q-100 -135 -101 -359v-278z" />
<glyph unicode="P" horiz-adv-x="1288" d="M221 0v1534h518q184 0 308 -137q119 -129 118 -310v-12q0 -190 -123 -327q-127 -143 -321 -144h-340v-604h-160zM381 754h336q127 2 207 100q78 94 77 227q-4 123 -73 211q-74 92 -193 92h-354v-630z" />
<glyph unicode="Q" horiz-adv-x="1415" d="M141 610v342q0 272 131 437q137 172 387 178q25 4 48 4q25 0 47 -4q250 -6 389 -178q129 -164 129 -437v-342q0 -291 -148 -456q-51 -56 -133 -95q-74 -37 -153 -51q10 -10 30 -35l66 -86q20 -25 37 -34q45 -31 88 -31q39 0 76 22l-2 -145q-45 -16 -91 -16q-53 0 -106 24 q-66 33 -123 98q-20 23 -39 52l-31 47q-33 53 -61 71q-23 14 -61 23l-62 8q-211 47 -317 209q-100 152 -101 395zM303 606q0 -444 361 -459h86q360 14 360 459v350q0 217 -84 332q-90 125 -276 127h-86q-186 -2 -277 -127q-84 -115 -84 -332v-350z" />
<glyph unicode="R" horiz-adv-x="1331" d="M197 0v1536h532q188 0 311 -135q119 -129 119 -311q0 -164 -98 -287q-100 -127 -264 -154q23 -20 53 -65q29 -45 59 -103l101 -198q27 -51 53 -93q37 -57 90 -57q25 0 53 12l11 -143l-9 -2q-8 -4 -14 -4l-23 -6q-14 -2 -30 -2q-119 0 -203 112q-33 45 -74 127 q-6 16 -16 35l-8 19q-4 6 -9 18q-23 47 -34 70q-29 59 -47 92q-29 51 -56 84q-66 84 -139 86h-199v-631h-159zM356 782h359q125 0 207 95q77 89 77 212q0 120 -73 205q-78 90 -197 90h-373v-602z" />
<glyph unicode="S" horiz-adv-x="1257" d="M201 1108q0 53 12 117q35 164 180 245q125 72 314 76h18q229 0 395 -102l-12 -164q-78 57 -188 92q-109 33 -207 33h-31q-117 -6 -199 -59q-88 -55 -112 -152q-10 -41 -11 -78q0 -170 203 -231l94 -29l103 -35q121 -43 192 -76q141 -66 201 -176q41 -78 41 -172 q0 -53 -12 -110q-35 -152 -176 -236q-129 -76 -316 -76q-106 0 -246 31q-113 25 -208 62l20 172q211 -119 438 -119h29q127 4 205 57q90 61 102 178q2 18 2 37q0 172 -201 246q-63 25 -151 51l-78 23q-51 14 -88 26q-313 98 -313 369z" />
<glyph unicode="T" horiz-adv-x="1144" d="M57 1393v141h1026v-141h-434v-1393h-160v1393h-432z" />
<glyph unicode="U" horiz-adv-x="1495" d="M211 557v977h160v-975q0 -186 104 -303q104 -119 283 -119q170 0 274 119q100 117 101 303v975h159v-981q0 -250 -157 -410q-153 -151 -372 -151h-3q-236 0 -389 151q-160 158 -160 414z" />
<glyph unicode="V" horiz-adv-x="1310" d="M61 1534h172l422 -1364l424 1364h170l-477 -1534h-231z" />
<glyph unicode="W" horiz-adv-x="1824" d="M29 1534h168l338 -1348l299 1301h165l324 -1301l311 1348h168l-356 -1534h-229l-297 1198l-275 -1198h-229z" />
<glyph unicode="X" horiz-adv-x="1312" d="M80 0q115 174 504 782l-498 752h195l395 -606l385 606h194l-485 -750l227 -352q102 -158 140 -209q29 -41 63 -61q27 -16 53 -17q20 0 39 9l4 -142q-31 -20 -73 -20q-18 0 -39 4q-57 10 -109 57q-39 37 -88 109l-309 477l-404 -639h-194z" />
<glyph unicode="Y" horiz-adv-x="1120" d="M8 1534h176l279 -565q68 -141 98 -244q18 61 47 127l203 414q37 78 66 133q35 72 67 135h176q-86 -166 -168 -328l-153 -315q-10 -23 -27 -53l-29 -56q-35 -66 -53 -108q-49 -111 -49 -223v-451h-160v453q0 111 -41 204l-366 750z" />
<glyph unicode="Z" horiz-adv-x="1216" d="M106 188l300 437l440 632q51 76 84 121h-752l-37 156h949l43 -154q-47 -70 -160 -231l-686 -995h835v-154h-968z" />
<glyph unicode="[" horiz-adv-x="706" d="M219 -285v1786h424l-16 -151h-217v-1483h217l16 -152h-424z" />
<glyph unicode="\" horiz-adv-x="727" d="M-37 1501h164l637 -1786h-164z" />
<glyph unicode="]" horiz-adv-x="706" d="M63 -285l17 152h217v1483h-217l-17 151h424v-1786h-424z" />
<glyph unicode="^" d="M172 997v19l231 526h256l232 -526v-19h-164l-199 478l-196 -478h-160z" />
<glyph unicode="_" horiz-adv-x="1024" d="M66 -156h892v-133h-892v133z" />
<glyph unicode="`" horiz-adv-x="1024" d="M303 1542h221l195 -291v-18h-162z" />
<glyph unicode="a" horiz-adv-x="1183" d="M139 342q0 344 400 344q104 0 196 -39q78 -33 123 -78v101q0 293 -262 293q-98 0 -193 -37q-78 -31 -149 -84l-51 145q55 41 151 72q123 41 248 41q193 0 303 -119q106 -115 109 -311v-670h-156v113q-74 -55 -141 -82q-90 -37 -193 -37q-170 0 -276 92q-109 96 -109 256z M293 344q0 -209 272 -213h10q74 0 138 31q53 27 114 82l21 22q12 18 12 39v92q0 29 -33 58q-47 37 -108 61q-78 31 -154 31q-272 0 -272 -203z" />
<glyph unicode="b" horiz-adv-x="1300" d="M205 0v1485l155 49v-600q102 164 345 164q170 0 292 -127q125 -129 125 -320v-231q0 -182 -127 -301q-121 -115 -295 -119h-18q-238 0 -324 145l2 -145h-155zM360 432q0 -127 80 -209q82 -84 215 -84q142 0 228 86q84 84 84 215v222q0 115 -82 200q-84 88 -207 88 q-141 0 -234 -92q-84 -84 -84 -194v-232z" />
<glyph unicode="c" horiz-adv-x="1036" d="M129 451v192q0 199 125 328q123 129 315 129q100 0 197 -27q84 -23 152 -61l-44 -144l-49 27q-33 18 -65 31q-92 35 -187 35q-131 0 -211 -97q-74 -88 -73 -221v-192q0 -143 84 -232q82 -84 200 -84q115 0 211 43q35 16 68 37l43 31l43 -146q0 -2 -25 -16 q-33 -20 -71 -37q-55 -23 -115 -37q-76 -16 -158 -16q-197 0 -317 123q-123 125 -123 334z" />
<glyph unicode="d" horiz-adv-x="1263" d="M129 416v231q0 190 127 322q121 127 291 127q111 0 211 -52q92 -47 133 -112v565l156 37v-1534h-156l2 143q-90 -145 -324 -145h-18q-174 4 -295 117q-127 119 -127 301zM285 438q0 -131 84 -215q86 -86 227 -86q135 0 215 84q80 80 80 209v229q0 111 -84 195 q-90 92 -234 92q-123 0 -206 -88q-82 -84 -82 -199v-221z" />
<glyph unicode="e" horiz-adv-x="1179" d="M147 430v178q0 205 123 342q131 147 355 148q172 0 290 -94q125 -96 125 -244q0 -299 -393 -299h-344v-78q0 -129 94 -195q84 -59 226 -59q104 0 219 51q96 41 155 99l-8 -177q-57 -41 -149 -73q-115 -39 -226 -39q-198 0 -321 96q-145 115 -146 344zM303 590h346 q236 0 236 178q0 197 -260 197q-138 -1 -228 -93q-94 -94 -94 -239v-43z" />
<glyph unicode="f" horiz-adv-x="712" d="M47 971v125h139v78q12 360 349 364q47 0 114 -6l60 -8l-4 -148l-39 8q-12 4 -27 7q-49 8 -86 8q-18 0 -35 -2q-180 -15 -180 -232v-69h364v-125h-364v-971h-152v971h-139z" />
<glyph unicode="g" horiz-adv-x="1198" d="M141 420v274q0 172 125 289q121 115 289 115q125 0 223 -51q80 -41 125 -105v154h156v-1125q0 -178 -133 -293q-121 -104 -281 -104q-121 0 -242 31q-47 10 -90 26q-35 12 -59 25l16 160l56 -29q43 -20 84 -37q117 -43 219 -43q106 0 188 66q86 68 86 161v222 q-27 -55 -117 -103q-106 -57 -225 -57q-164 0 -287 110q-133 123 -133 314zM295 434q0 -131 86 -215t219 -84q119 0 209 86q94 90 94 217v211q0 135 -94 223q-90 84 -215 84q-127 0 -213 -84q-86 -86 -86 -223v-215z" />
<glyph unicode="h" horiz-adv-x="1247" d="M190 0v1505l156 29v-596q115 164 322 164q176 0 284 -129q104 -127 105 -336v-637h-154v637q0 313 -266 313q-123 0 -205 -82q-86 -88 -86 -227v-641h-156z" />
<glyph unicode="i" horiz-adv-x="565" d="M180 1380q0 94 96 95h15q92 0 92 -95q0 -96 -92 -96h-15q-96 0 -96 96zM205 0v1081l155 21v-1102h-155z" />
<glyph unicode="j" horiz-adv-x="622" d="M45 -268q25 -4 47 -4q160 0 164 223v1130l156 21v-1129q0 -203 -97 -311q-76 -82 -190 -82q-37 0 -80 8v144zM231 1380q0 94 97 95h14q92 0 92 -95q0 -96 -92 -96h-14q-96 0 -97 96z" />
<glyph unicode="k" horiz-adv-x="1173" d="M205 0v1479l155 24v-1003l586 598h184q-20 -25 -75 -84l-160 -168l-16 -15l-156 -165l170 -283q94 -154 119 -190q37 -59 92 -60q12 0 26 4v-135q-39 -12 -73 -12q-100 0 -170 112q-82 133 -156 258q-80 133 -115 197q-51 -53 -124 -123l-132 -125v-309h-155z" />
<glyph unicode="l" horiz-adv-x="561" d="M205 0v1513l155 23v-1536h-155z" />
<glyph unicode="m" horiz-adv-x="1832" d="M176 0v1079l156 23v-148q39 61 133 105q86 41 164 41q125 0 213 -66q70 -51 100 -125q39 70 123 123q106 68 240 68q150 0 247 -111q96 -106 97 -258v-731h-160v705q0 109 -64 178q-65 71 -165 71h-3q-111 0 -190 -71q-80 -72 -80 -178v-705h-149v723q0 106 -74 174 q-70 61 -168 61q-92 0 -174 -59q-90 -68 -90 -168v-731h-156z" />
<glyph unicode="n" horiz-adv-x="1236" d="M172 0v1069l156 31v-152q70 74 145 111q88 41 201 41q178 0 287 -137q102 -129 102 -322v-641h-156v676q0 125 -88 205q-81 75 -198 75h-3q-119 0 -202 -79q-88 -84 -88 -213v-664h-156z" />
<glyph unicode="o" horiz-adv-x="1247" d="M145 487v121q0 209 134 348q137 145 354 146q205 0 340 -146q131 -143 131 -350v-129q0 -213 -131 -348q-131 -137 -336 -137q-225 0 -358 137q-133 135 -134 358zM301 467q0 -147 88 -242q92 -96 240 -96q150 0 237 96q82 92 82 242v160q0 141 -82 235q-88 102 -237 103 q-148 -1 -240 -103q-88 -96 -88 -235v-160z" />
<glyph unicode="p" horiz-adv-x="1193" d="M143 -426v1501l154 23v-168q47 68 125 112q100 57 223 58q174 0 295 -125q121 -123 121 -301v-234q0 -199 -123 -323q-119 -121 -299 -121q-119 0 -223 55q-90 49 -119 105v-566zM297 436q0 -127 94 -215q90 -86 209 -86q137 0 219 76q86 82 86 223v215q0 147 -86 232 q-81 77 -210 77h-3q-125 0 -215 -84q-94 -90 -94 -225v-213z" />
<glyph unicode="q" horiz-adv-x="1236" d="M129 426v268q0 172 125 291q123 115 291 115q123 0 223 -56q78 -43 125 -108v139l156 25v-1487l-156 -37v586q-27 -55 -117 -105q-104 -55 -225 -55q-166 0 -287 111q-135 121 -135 313zM285 440q0 -133 86 -217q86 -82 219 -82q119 0 209 86q94 88 94 215v207 q0 135 -94 225q-90 84 -215 84q-129 0 -213 -84q-86 -88 -86 -225v-209z" />
<glyph unicode="r" horiz-adv-x="823" d="M205 0v1073l151 23v-185l6 23q88 164 275 164q29 0 61 -4q39 -6 58 -17v-143q-66 16 -117 16q-117 0 -201 -84q-82 -80 -82 -188v-678h-151z" />
<glyph unicode="s" horiz-adv-x="1032" d="M158 780q0 41 10 86q31 139 154 201q96 47 241 47h35q92 -4 195 -39q78 -29 151 -69l-53 -138q-72 49 -135 76q-86 37 -172 41q-18 2 -35 2q-78 0 -135 -24q-86 -35 -103 -117q-4 -25 -4 -45q0 -125 144 -162l176 -39q102 -23 166 -49q76 -33 118 -88q47 -63 50 -156 q-2 -150 -117 -235q-102 -78 -254 -78h-17q-106 2 -219 37q-47 14 -98 35l-92 38q16 74 41 146q90 -51 182 -82q109 -37 193 -37q209 0 227 152q2 12 2 24q0 57 -43 94q-43 39 -133 62q-37 10 -101 22q-6 0 -12 2l-86 19q-111 27 -170 67q-106 76 -106 207z" />
<glyph unicode="t" horiz-adv-x="833" d="M63 969v131h162v295l154 30v-325h379v-131h-379v-613q0 -117 29 -166q37 -63 135 -63q141 0 219 88l2 -149l-29 -21l-49 -25q-74 -30 -168 -30h-6q-145 0 -219 104q-68 94 -68 256v619h-162z" />
<glyph unicode="u" horiz-adv-x="1257" d="M203 465v631h155v-662q0 -295 281 -295q125 0 205 82q82 82 82 213v662h155v-1096h-155v139q-135 -141 -314 -141q-410 0 -409 467z" />
<glyph unicode="v" horiz-adv-x="1040" d="M70 1100h166q10 -29 38 -135l64 -222q18 -68 37 -125q18 -68 37 -126q43 -137 75 -230l31 -112l21 83q4 16 8 27q33 100 76 242q18 57 39 127l65 225q2 2 2 8l72 238h166l-346 -1100h-205z" />
<glyph unicode="w" horiz-adv-x="1640" d="M90 1100h166l238 -955q4 8 8 25l200 793q25 96 33 133h168l60 -234q14 -61 28 -112l64 -250q35 -139 61 -240q4 -10 8 -27l15 -63q4 -16 8 -25l237 955h166l-301 -1100h-213l-211 831l-6 48l-4 -48l-211 -831h-213z" />
<glyph unicode="x" horiz-adv-x="1075" d="M74 0l137 197l235 348l-372 555h188l279 -430l282 430h187q-14 -23 -54 -80l-319 -475l371 -545h-185l-282 414l-193 -283q-20 -29 -33 -49l-55 -82h-186z" />
<glyph unicode="y" horiz-adv-x="976" d="M49 1100h164q12 -33 63 -185l248 -731l275 916h168l-422 -1301q-51 -150 -156 -196q-57 -25 -151 -25q-51 0 -111 6l14 148q59 -8 103 -8q55 0 86 14q61 29 100 158l19 81z" />
<glyph unicode="z" horiz-adv-x="1071" d="M98 178q33 41 133 160l529 616h-602l-15 146h775v-193q-23 -29 -117 -141l-402 -473q-106 -123 -129 -152h670v-141h-780z" />
<glyph unicode="{" horiz-adv-x="698" d="M133 -57q0 92 80 188q20 27 70 78l36 37q18 20 31 37q57 66 58 123q0 29 -15 53q-41 74 -155 80h-84l-21 -2v137l103 2q90 8 137 55q35 31 35 76q0 29 -17 63q-20 43 -69 95l-41 43q-31 31 -43 45q-49 53 -74 96q-31 57 -31 119q0 115 103 176q86 53 208 53q27 0 62 -2 q18 0 33 -2q16 0 26 -2l-22 -137q-41 4 -99 4q-152 0 -151 -90q0 -43 49 -92l59 -66q6 -6 9 -10q45 -47 67 -78q74 -96 74 -195q0 -82 -39 -141q-43 -70 -121 -82q160 -31 160 -219q0 -94 -70 -192q-27 -37 -65 -80l-70 -72q-53 -57 -53 -98q0 -88 151 -88q57 0 99 4 l22 -138q-10 -2 -26 -2q-14 -2 -33 -2q-35 -2 -62 -2q-121 0 -206 54q-104 61 -105 174z" />
<glyph unicode="|" horiz-adv-x="561" d="M205 -451v2024h151v-2024h-151z" />
<glyph unicode="}" horiz-adv-x="675" d="M115 -281l22 138q41 -4 99 -4q152 0 151 90q0 43 -49 92l-59 65q-6 6 -9 11q-45 47 -67 77q-74 96 -74 195q0 82 39 141q43 70 121 82q-160 31 -160 219q0 94 70 193q27 37 65 80l70 71q53 57 53 99q0 88 -151 88q-57 0 -99 -4l-22 137q10 2 26 2q14 2 35 2q33 2 60 2 q121 0 206 -51q104 -63 105 -176q0 -92 -80 -189q-20 -27 -70 -78l-37 -36q-18 -20 -30 -37q-55 -66 -56 -121q0 -29 15 -55q39 -74 153 -80h84l21 2v-137l-103 -2q-90 -8 -137 -54q-35 -33 -35 -75q0 -31 17 -66q20 -43 69 -94l41 -43q31 -31 43 -45q49 -53 74 -97 q31 -57 31 -118q0 -115 -103 -176q-86 -53 -208 -54q-27 0 -60 2q-20 0 -35 2q-16 0 -26 2z" />
<glyph unicode="~" d="M123 438v170q98 96 227 97q45 0 96 -19q33 -10 93 -39l43 -20q25 -12 45 -19q49 -18 90 -18q100 0 221 115v-170q-109 -102 -221 -103q-45 0 -96 19q-33 10 -93 38l-43 21q-25 12 -45 18q-49 18 -90 19q-117 0 -227 -109z" />
<glyph unicode="&#xa2;" horiz-adv-x="1134" d="M178 467v278q0 166 131 289q129 121 301 125l13 125h96l-12 -129q150 -16 260 -82l-43 -143l-90 47q-70 31 -142 39l-80 -826h11q115 0 211 46q35 14 67 36l43 31l43 -145q0 -2 -24 -17q-33 -20 -72 -37q-55 -23 -115 -36q-76 -16 -158 -17h-18l-12 -125h-96l12 137 q-147 33 -236 146q-90 111 -90 258zM338 467q0 -180 180 -256l80 809q-106 -10 -182 -92q-78 -82 -78 -183v-278z" />
<glyph unicode="&#xa3;" horiz-adv-x="1173" d="M125 139l160 8q100 10 147 43q66 51 66 144q0 39 -13 86q-16 59 -51 127q-27 51 -61 100h-232v127h164q-94 178 -94 344q0 188 139 314q135 121 328 120q227 0 362 -163l-108 -121q-86 131 -254 131q-125 0 -213 -76q-92 -82 -92 -205q0 -66 39 -172q35 -100 82 -172h493 l-29 -127h-391q63 -96 86 -213q8 -49 9 -94q0 -74 -23 -135l-12 -31q-8 -16 -17 -27l451 3v-150h-930z" />
<glyph unicode="&#xa5;" horiz-adv-x="1200" d="M41 1534h184q29 -53 68 -131l141 -301q39 -84 64 -133q63 -129 96 -244q16 59 47 127l258 549l70 133h184q-86 -166 -168 -328l-154 -315l-90 -174h271v-99h-312q-23 -78 -26 -153h338v-98h-338v-367h-160v367h-336v98h336q-4 82 -27 153h-309v99h266l-338 690z" />
<glyph unicode="&#xa9;" horiz-adv-x="1542" d="M96 752q0 338 174 540q182 207 500 207q315 0 496 -207q176 -203 176 -540q0 -330 -170 -531q-178 -213 -502 -213q-322 0 -504 215q-170 203 -170 529zM197 752q0 -301 139 -473q152 -184 434 -185q283 0 432 176q141 170 141 482q1 307 -149 483q-154 178 -424 178 q-285 0 -434 -180q-139 -170 -139 -481zM475 657v193q0 117 92 203q92 84 213 84q139 0 240 -60q-4 -18 -14 -51q0 -4 -2 -8l-13 -43q-8 6 -14 8l-19 10q-25 12 -47 21q-63 25 -129 24q-78 0 -137 -57t-59 -131v-193q0 -76 59 -133q57 -57 137 -57q78 0 148 37l47 31l29 24 l28 -102q0 -2 -16 -15q-10 -6 -21 -14q-14 -8 -28 -14q-39 -20 -80 -31q-53 -14 -109 -14q-133 0 -219 84t-86 204z" />
<glyph unicode="&#xad;" horiz-adv-x="512" d="M47 467v154h418v-154h-418z" />
<glyph unicode="&#xae;" horiz-adv-x="931" d="M102 1133q0 178 97 282q96 106 266 107q166 0 264 -105q98 -104 98 -284q0 -177 -94 -279q-96 -109 -266 -109t-268 109q-96 104 -97 279zM170 1133q0 -150 70 -236q78 -94 227 -94q293 0 293 330q-4 329 -293 329q-297 0 -297 -329zM332 932v405h137q53 0 86 -37t33 -86 q0 -88 -80 -114q2 -2 2 -4q12 -14 20 -31l13 -31q8 -10 10 -22l10 -17q4 -6 17 -6l20 4l6 -61l-31 -2q-43 0 -63 33q-8 12 -18 32q-4 6 -9 17l-8 18q-12 25 -24 43q-12 16 -25 17h-35v-158h-61zM393 1149h74q27 0 43 20q16 16 16 45q0 25 -16 46q-14 18 -41 18h-76v-129z " />
<glyph unicode="&#xb4;" horiz-adv-x="1024" d="M303 1192v18l195 291h221l-254 -309h-162z" />
<glyph unicode="&#x2000;" horiz-adv-x="799" />
<glyph unicode="&#x2001;" horiz-adv-x="1599" />
<glyph unicode="&#x2002;" horiz-adv-x="799" />
<glyph unicode="&#x2003;" horiz-adv-x="1599" />
<glyph unicode="&#x2004;" horiz-adv-x="533" />
<glyph unicode="&#x2005;" horiz-adv-x="399" />
<glyph unicode="&#x2006;" horiz-adv-x="266" />
<glyph unicode="&#x2007;" horiz-adv-x="266" />
<glyph unicode="&#x2008;" horiz-adv-x="199" />
<glyph unicode="&#x2009;" horiz-adv-x="319" />
<glyph unicode="&#x200a;" horiz-adv-x="88" />
<glyph unicode="&#x2010;" horiz-adv-x="512" d="M47 467v154h418v-154h-418z" />
<glyph unicode="&#x2011;" horiz-adv-x="512" d="M47 467v154h418v-154h-418z" />
<glyph unicode="&#x2012;" horiz-adv-x="512" d="M47 467v154h418v-154h-418z" />
<glyph unicode="&#x2013;" horiz-adv-x="1024" d="M66 467v154h892v-154h-892z" />
<glyph unicode="&#x2014;" horiz-adv-x="2048" d="M66 467v154h1916v-154h-1916z" />
<glyph unicode="&#x2018;" horiz-adv-x="475" d="M78 1262q0 108 47 182q53 82 182 155l90 -112q-100 -51 -131 -92q-25 -33 -24 -97v-18h30q82 0 82 -86q0 -109 -127 -109q-150 0 -149 177z" />
<glyph unicode="&#x2019;" horiz-adv-x="475" d="M78 1194q100 51 131 92q25 33 24 96v19h-30q-82 0 -82 86q0 109 127 108q150 0 149 -176q0 -108 -47 -182q-53 -82 -182 -156z" />
<glyph unicode="&#x201c;" horiz-adv-x="831" d="M78 1255q0 109 47 183q53 82 182 155l90 -112q-100 -51 -131 -92q-25 -33 -24 -97v-18h30q82 0 82 -86q0 -109 -127 -109q-150 0 -149 176zM434 1255q0 109 47 183q53 82 183 155l90 -112q-100 -51 -131 -92q-25 -33 -25 -97v-18h31q82 0 82 -86q0 -109 -127 -109 q-150 0 -150 176z" />
<glyph unicode="&#x201d;" horiz-adv-x="831" d="M78 1192q100 51 131 92q25 33 24 96v19h-30q-82 0 -82 86q0 109 127 108q150 0 149 -176q0 -108 -47 -182q-53 -82 -182 -156zM434 1192q100 51 131 92q25 33 25 96v19h-31q-82 0 -82 86q0 109 127 108q150 0 150 -176q0 -108 -47 -182q-53 -82 -183 -156z" />
<glyph unicode="&#x2022;" horiz-adv-x="1024" d="M252 283v518h520v-518h-520z" />
<glyph unicode="&#x2026;" horiz-adv-x="1443" d="M154 104q0 119 125 119t124 -119q1 -118 -124 -118t-125 118zM596 104q0 119 125 119t125 -119q0 -118 -125 -118t-125 118zM1040 104q0 119 125 119t125 -119q0 -118 -125 -118t-125 118z" />
<glyph unicode="&#x202f;" horiz-adv-x="319" />
<glyph unicode="&#x205f;" horiz-adv-x="399" />
<glyph unicode="&#x20ac;" horiz-adv-x="1200" d="M117 539v108h129v244h-129v108h129q12 231 143 387q139 176 369 183h16q193 0 363 -101l-58 -155q-147 98 -301 102h-14q-152 -2 -254 -125q-92 -113 -104 -291h587l-43 -108h-547v-244h590l-43 -108h-544q14 -180 104 -287q100 -113 254 -119h29q57 4 141 37 q74 29 145 70l58 -156q-55 -29 -103 -47q-70 -27 -119 -39q-63 -16 -118 -18h-39q-225 6 -369 176q-127 145 -143 383h-129z" />
<glyph unicode="&#x2122;" horiz-adv-x="1601" d="M84 1409v88h160q76 0 110 -20q33 20 109 20h158v-88h-181q-12 0 -18 -2q-14 -2 -21 -12q-4 -8 -4 -21v-641h-92v647q0 10 -4 19q-4 6 -14 8q-8 2 -23 2h-180zM788 733v764h142l196 -606l199 606h139v-764h-94v621l-199 -600h-90l-198 598v-619h-95z" />
<glyph unicode="&#xe000;" horiz-adv-x="1095" d="M0 0v1096h1096v-1096h-1096z" />
</font>
</defs>
</svg>
